<svg xmlns="http://www.w3.org/2000/svg" xmlns:xlink="http://www.w3.org/1999/xlink" viewBox="0 0 793.68 646.43"><defs><style>.cls-1{fill:url(#linear-gradient);}</style><linearGradient id="linear-gradient" y1="403.85" x2="793.68" y2="403.85" gradientTransform="matrix(1, 0, 0, -1, 0, 634.18)" gradientUnits="userSpaceOnUse"><stop offset="0" stop-color="#ffbd41"/><stop offset="1" stop-color="#ff6628"/></linearGradient></defs><g id="Layer_2" data-name="Layer 2"><g id="Layer_1-2" data-name="Layer 1"><g id="Layer_2-2" data-name="Layer 2"><path class="cls-1" d="M765.11,146.1a28.57,28.57,0,1,0-28.57-28.57,26.11,26.11,0,0,0,1.64,9.47l-78,69.38L555.84,132.71a30.59,30.59,0,0,0,.49-5.38,29.56,29.56,0,0,0-47-23.84L415.45,28.4a24.14,24.14,0,0,0,.81-5.87,22.53,22.53,0,1,0-45.05,0,22.28,22.28,0,0,0,6.86,16.16l-46.69,99.25a35.16,35.16,0,0,0-7.35-.65,36.14,36.14,0,0,0-19.91,5.87L183.81,86.68a28.18,28.18,0,0,0,.16-3.75A34.1,34.1,0,1,0,177.44,103l114.27,53.7a36.87,36.87,0,0,0-4.24,17,35.65,35.65,0,0,0,5.38,18.93l-65.62,65.63a53.79,53.79,0,0,0-80.15,18.44L55.34,233.6c0-.66.16-1.47.16-2.29a27.75,27.75,0,1,0-27.75,27.75,27.45,27.45,0,0,0,20.9-9.46l93,43.74a64.91,64.91,0,0,0-.65,7.84,53.94,53.94,0,0,0,18.94,41L108.88,412h-1.63a21.39,21.39,0,1,0,21.38,21.38,20.9,20.9,0,0,0-4.4-12.89l50.6-69.22a54,54,0,0,0,19.92,3.76,53.37,53.37,0,0,0,39.34-17.14L291.55,380a33.42,33.42,0,0,0-2.61,13.55,35.23,35.23,0,0,0,67.9,13.23l129.45-43.92a45.13,45.13,0,0,0,39.84,23.84,44.11,44.11,0,0,0,25.79-8.16l59.42,51.74a21.32,21.32,0,0,0-1.15,7.19,23.18,23.18,0,1,0,23.18-23.18,23.79,23.79,0,0,0-10.77,2.61L564,366a45.18,45.18,0,0,0-29.06-68.73V155.57A28.74,28.74,0,0,0,547,148.22l110.19,67.09L741,336.6a14.71,14.71,0,0,0-1.14,6,16,16,0,1,0,16-16h-.66l-82.27-119L748,141C753.36,144.14,759.07,146.1,765.11,146.1ZM481.23,341.34c0,1.63.17,3.1.17,4.73L359.13,387.53a35.28,35.28,0,0,0-34.77-29.38,34.88,34.88,0,0,0-22,7.84l-58.27-42.61a52.56,52.56,0,0,0,4.73-22.2,53.3,53.3,0,0,0-9.47-30.53l65.95-65.95a36.35,36.35,0,0,0,49.46-12.24L491.84,312A46.63,46.63,0,0,0,481.23,341.34ZM518,296.94A40.92,40.92,0,0,0,506.05,301L360.27,174.18v-.65a36.66,36.66,0,0,0-13.22-28.08l47.18-100.4a22.78,22.78,0,0,0,10.44-2.93l94.19,75.41a28.17,28.17,0,0,0-1.63,9.8A29.55,29.55,0,0,0,518,155.57V296.94Z"/><path d="M136.8,577.38c0,12.74-1.47,23.18-4.41,31.18-4.57,12.25-12.08,21.71-22.69,28.24-10.12,6.37-22.2,9.47-36.08,9.63-22.69,0-40-7.18-52.24-21.87-9.14-11.1-13.71-24.32-13.87-39.83,0-17.14,5.22-31.51,16-43.1q18.12-19.83,50.93-20.08c14.53,0,26.93,3.43,37.05,10.62,7.19,5.06,13.39,12.4,18.61,22.36L99.74,566.61C97.13,561.06,94,557,90.6,554.37A26.65,26.65,0,0,0,73,548.65c-14,0-23.67,6.86-29.22,20.57a40.11,40.11,0,0,0-3.1,15.67q0,16.65,11.26,27.92,8.33,8.33,22,8.32c8.16,0,14.69-2.28,19.42-6.85,3.11-2.94,5.23-7.35,6.21-13.23H73.13V577.87Z"/><path d="M251.88,602.52a39.66,39.66,0,0,1-11.43,28.57c-9.3,9.63-22.2,14.53-38.85,14.53-16.81,0-29.71-4.74-39-14.37C154.92,623.42,151,613.62,151,602c0-10.44,3.75-19.59,11.42-27.59,9.31-9.79,22.53-14.52,39.84-14.69,15.83,0,28.56,4.74,38,14.53A39.11,39.11,0,0,1,251.88,602.52Zm-30.85,0a17.65,17.65,0,0,0-5.72-13.22,19.47,19.47,0,0,0-13.87-5.39,19.19,19.19,0,0,0-14.86,6.53A17,17,0,0,0,182,602.52a17.62,17.62,0,0,0,4.74,12.08,19,19,0,0,0,15,6.53,19.44,19.44,0,0,0,13.87-5.39A17.7,17.7,0,0,0,221,602.52Z"/><path d="M363.54,642.19H333.83v-8.82a28.56,28.56,0,0,1-8.49,7.35A35.14,35.14,0,0,1,308,644.8a42.18,42.18,0,0,1-27.76-10.12c-9.63-8.16-14.52-18.94-14.52-32.32,0-13.71,4.89-24.49,14.85-32.65a41.31,41.31,0,0,1,27.1-9.79,39.34,39.34,0,0,1,16.81,3.59,32.18,32.18,0,0,1,9.31,6.85l-.17-57.29h29.71Zm-29.06-39.83a17.68,17.68,0,0,0-5.55-12.9c-3.59-3.59-8.16-5.22-13.55-5.22a18.57,18.57,0,0,0-14.53,6.37,17.39,17.39,0,0,0,0,23.5,18.35,18.35,0,0,0,14.53,6.37,19.29,19.29,0,0,0,13.55-5.22A16.81,16.81,0,0,0,334.48,602.36Z"/><path d="M478.3,641.86H448.59v-8.81a28.51,28.51,0,0,1-8.49,7.34,35.18,35.18,0,0,1-17.31,4.09A42.13,42.13,0,0,1,395,634.35c-9.63-8.16-14.53-18.93-14.53-32.32,0-13.71,4.9-24.48,14.86-32.65a41.31,41.31,0,0,1,27.1-9.79,39.38,39.38,0,0,1,16.81,3.59,32.24,32.24,0,0,1,9.31,6.86l-.17-57.3h29.71ZM449.24,602a17.65,17.65,0,0,0-5.55-12.89,19.95,19.95,0,0,0-28.08,1.14,17.4,17.4,0,0,0,0,23.51,18.37,18.37,0,0,0,14.53,6.36,19.27,19.27,0,0,0,13.55-5.22A16.08,16.08,0,0,0,449.24,602Z"/><path d="M593.05,641.7H563.34v-8.81a28.51,28.51,0,0,1-8.48,7.34,35.18,35.18,0,0,1-17.31,4.08,42.16,42.16,0,0,1-27.75-10.12c-9.63-8.16-14.53-18.93-14.53-32.32,0-13.71,4.9-24.49,14.86-32.65a41.27,41.27,0,0,1,27.1-9.79A41.94,41.94,0,0,1,554,562.85a32.27,32.27,0,0,1,9.3,6.86v-7.83h29.71Zm-28.89-39.83a17,17,0,0,0-5.55-12.73,19.26,19.26,0,0,0-13.55-5.23,18.57,18.57,0,0,0-14.53,6.37,17.4,17.4,0,0,0,0,23.51,18.37,18.37,0,0,0,14.53,6.36,19.25,19.25,0,0,0,13.55-5.22A18.32,18.32,0,0,0,564.16,601.87Z"/><path d="M676,587.67a28.68,28.68,0,0,0-12.57-2.78c-9.79,0-16,3.92-18.93,11.43-1.15,2.77-1.64,6.53-1.64,11.1v34.12H613.13L613,561.71h29.71v13.06a31.37,31.37,0,0,1,10.12-10.12c4.9-2.77,10.61-4.08,17.3-4.24,1.64,0,3.43,0,5.72.16Z"/><path d="M783.88,641.21H754.17V632.4a28.41,28.41,0,0,1-8.49,7.34,35.14,35.14,0,0,1-17.3,4.08,42.16,42.16,0,0,1-27.75-10.12c-9.63-8.16-14.53-18.93-14.53-32.32,0-13.71,4.9-24.49,14.86-32.65a41.27,41.27,0,0,1,27.09-9.79,39.42,39.42,0,0,1,16.82,3.59,32,32,0,0,1,9.3,6.85L754,512.09h29.71ZM755,601.38a17.68,17.68,0,0,0-5.55-12.9c-3.59-3.59-8.16-5.22-13.55-5.22a18.57,18.57,0,0,0-14.53,6.37,17.39,17.39,0,0,0,0,23.5,18.35,18.35,0,0,0,14.53,6.37,19.31,19.31,0,0,0,13.55-5.22A16.61,16.61,0,0,0,755,601.38Z"/></g></g></g></svg>