<?xml version="1.0" encoding="utf-8"?>
<!-- Generator: Adobe Illustrator 24.0.2, SVG Export Plug-In . SVG Version: 6.00 Build 0)  -->
<svg version="1.1" xmlns="http://www.w3.org/2000/svg" xmlns:xlink="http://www.w3.org/1999/xlink" x="0px" y="0px"
	 viewBox="0 0 500 500" style="enable-background:new 0 0 500 500;" xml:space="preserve">
<style type="text/css">
	.st0{display:none;}
	.st1{fill:url(#SVGID_1_);}
</style>
<g id="Layer_1" class="st0">
</g>
<g id="Layer_2">
	<linearGradient id="SVGID_1_" gradientUnits="userSpaceOnUse" x1="6.6355" y1="174.3398" x2="492.7721" y2="174.3398">
		<stop  offset="0" style="stop-color:#FFBD41"/>
		<stop  offset="1" style="stop-color:#FF6628"/>
	</linearGradient>
	<path class="st1" d="M475.2,122.8c9.7,0,17.5-7.9,17.5-17.5c0-9.7-7.9-17.5-17.5-17.5c-9.7,0-17.5,7.9-17.5,17.5c0,2,0.3,4,1,5.8
		l-47.8,42.5l-63.9-39c0.2-1.1,0.3-2.2,0.3-3.3c0-10-8.1-18.1-18.1-18.1c-4,0-7.7,1.3-10.7,3.5l-57.5-46c0.3-1.2,0.5-2.4,0.5-3.6
		c0-7.6-6.2-13.8-13.8-13.8c-7.6,0-13.8,6.2-13.8,13.8c0,3.9,1.6,7.4,4.2,9.9l-28.6,60.8c-1.4-0.3-2.9-0.4-4.5-0.4
		c-4.5,0-8.7,1.3-12.2,3.6l-73.7-34.6c0.1-0.7,0.1-1.5,0.1-2.3c0-11.5-9.4-20.9-20.9-20.9c-11.5,0-20.9,9.4-20.9,20.9
		c0,11.5,9.4,20.9,20.9,20.9c6.9,0,13.1-3.4,16.9-8.6l70,32.9c-1.6,3.1-2.6,6.6-2.6,10.4c0,4.3,1.2,8.2,3.3,11.6l-40.2,40.2
		c-5.5-4.1-12.4-6.6-19.8-6.6c-12.8,0-23.8,7.3-29.3,17.9l-56.2-26.4c0-0.4,0.1-0.9,0.1-1.4c0-9.4-7.6-17-17-17c-9.4,0-17,7.6-17,17
		c0,9.4,7.6,17,17,17c5.1,0,9.7-2.2,12.8-5.8l57,26.8c-0.2,1.6-0.4,3.2-0.4,4.8c0,10,4.5,19,11.6,25.1l-31.3,42.8c-0.3,0-0.7,0-1,0
		c-7.3,0-13.1,5.9-13.1,13.1c0,7.3,5.9,13.1,13.1,13.1c7.3,0,13.1-5.9,13.1-13.1c0-3-1-5.7-2.7-7.9l31-42.4
		c3.8,1.5,7.9,2.3,12.2,2.3c9.5,0,18.1-4,24.1-10.5l35.2,25.8c-1.1,2.5-1.6,5.3-1.6,8.3c0,11.9,9.7,21.6,21.6,21.6
		c9.1,0,16.8-5.6,20-13.5l79.3-26.9c4.7,8.7,13.8,14.6,24.4,14.6c5.9,0,11.3-1.8,15.8-5l36.4,31.7c-0.5,1.4-0.7,2.9-0.7,4.4
		c0,7.9,6.4,14.2,14.2,14.2c7.8,0,14.2-6.4,14.2-14.2c0-7.8-6.4-14.2-14.2-14.2c-2.4,0-4.6,0.6-6.6,1.6l-35.9-31.2
		c2.8-4.3,4.4-9.5,4.4-15c0-13.4-9.5-24.6-22.2-27.1v-86.8c2.8-0.9,5.4-2.4,7.4-4.5l67.5,41.1l51.3,74.3c-0.5,1.1-0.7,2.4-0.7,3.7
		c0,5.4,4.4,9.8,9.8,9.8c5.4,0,9.8-4.4,9.8-9.8c0-5.4-4.4-9.8-9.8-9.8c-0.1,0-0.2,0-0.4,0l-50.4-72.9l46-40.8
		C468,121.6,471.5,122.8,475.2,122.8z M301.3,242.4c0,1,0.1,1.9,0.1,2.9l-74.9,25.4c-1.7-10.2-10.6-18-21.3-18
		c-5.1,0-9.8,1.8-13.5,4.8l-35.7-26.1c1.9-4.1,2.9-8.7,2.9-13.6c0-6.9-2.1-13.4-5.8-18.7l40.4-40.4c3.3,2,7.2,3.1,11.4,3.1
		c8,0,15-4.2,18.9-10.6l84,73.2C303.8,229.3,301.3,235.6,301.3,242.4z M323.8,215.2c-2.6,0.5-5.1,1.3-7.3,2.5L227.2,140
		c0-0.1,0-0.2,0-0.4c0-6.9-3.2-13.1-8.1-17.2L248,60.9c2.3-0.1,4.5-0.7,6.4-1.8l57.7,46.2c-0.7,1.9-1,3.9-1,6
		c0,8.1,5.3,15,12.7,17.3V215.2z"/>
	<g>
		<path d="M90.3,387c0,7.8-0.9,14.2-2.7,19.1c-2.8,7.5-7.4,13.3-13.9,17.3c-6.2,3.9-13.6,5.8-22.1,5.9c-13.9,0-24.5-4.4-32-13.4
			c-5.6-6.8-8.4-14.9-8.5-24.4c0-10.5,3.2-19.3,9.8-26.4c7.4-8.1,17.8-12.2,31.2-12.3c8.9,0,16.5,2.1,22.7,6.5
			c4.4,3.1,8.2,7.6,11.4,13.7l-18.6,7.4c-1.6-3.4-3.5-5.9-5.6-7.5c-3-2.4-6.7-3.6-10.8-3.5c-8.6,0-14.5,4.2-17.9,12.6
			c-1.3,3.1-1.9,6.3-1.9,9.6c0,6.8,2.3,12.5,6.9,17.1c3.4,3.4,7.9,5.1,13.5,5.1c5,0,9-1.4,11.9-4.2c1.9-1.8,3.2-4.5,3.8-8.1l-16.2,0
			l0-14.2L90.3,387z"/>
		<path d="M160.8,402.4c0,6.8-2.3,12.6-7,17.5c-5.7,5.9-13.6,8.9-23.8,8.9c-10.3,0-18.2-2.9-23.9-8.8c-4.7-4.8-7.1-10.8-7.1-17.9
			c0-6.4,2.3-12,7-16.9c5.7-6,13.8-8.9,24.4-9c9.7,0,17.5,2.9,23.3,8.9C158.4,389.9,160.8,395.7,160.8,402.4z M141.9,402.4
			c0-3.2-1.2-5.9-3.5-8.1c-2.3-2.2-5.2-3.3-8.5-3.3c-3.7,0-6.8,1.4-9.1,4c-1.9,2.2-2.9,4.6-2.8,7.4c0,2.8,1,5.3,2.9,7.4
			c2.4,2.7,5.4,4,9.2,4c3.3,0,6.2-1.1,8.5-3.3C140.8,408.4,141.9,405.6,141.9,402.4z"/>
		<path d="M229.2,426.7l-18.2,0l0-5.4c-1.7,2.1-3.5,3.6-5.2,4.5c-3.1,1.7-6.6,2.5-10.6,2.5c-6.4,0-12.1-2.1-17-6.2
			c-5.9-5-8.9-11.6-8.9-19.8c0-8.4,3-15,9.1-20c4.8-4,10.4-6,16.6-6c3.6,0,7.1,0.7,10.3,2.2c1.8,0.8,3.7,2.2,5.7,4.2l-0.1-35.1
			l18.2,0L229.2,426.7z M211.4,402.3c0-3.1-1.2-5.7-3.4-7.9s-5-3.2-8.3-3.2c-3.6,0-6.6,1.3-8.9,3.9c-1.9,2.1-2.8,4.5-2.8,7.2
			c0,2.7,0.9,5.1,2.8,7.2c2.3,2.6,5.2,3.9,8.9,3.9c3.3,0,6-1.1,8.3-3.2C210.3,408.1,211.4,405.4,211.4,402.3z"/>
		<path d="M299.5,426.5l-18.2,0l0-5.4c-1.7,2.1-3.5,3.6-5.2,4.5c-3.1,1.7-6.6,2.5-10.6,2.5c-6.4,0-12.1-2.1-17-6.2
			c-5.9-5-8.9-11.6-8.9-19.8c0-8.4,3-15,9.1-20c4.8-4,10.4-6,16.6-6c3.6,0,7.1,0.7,10.3,2.2c1.8,0.8,3.7,2.2,5.7,4.2l-0.1-35.1
			l18.2,0L299.5,426.5z M281.7,402.1c0-3.1-1.2-5.7-3.4-7.9c-2.3-2.2-5-3.2-8.3-3.2c-3.6,0-6.6,1.3-8.9,3.9
			c-1.9,2.1-2.8,4.5-2.8,7.2c0,2.7,0.9,5.1,2.8,7.2c2.3,2.6,5.2,3.9,8.9,3.9c3.3,0,6-1.1,8.3-3.2
			C280.6,407.9,281.8,405.3,281.7,402.1z"/>
		<path d="M369.8,426.4l-18.2,0l0-5.4c-1.7,2.1-3.5,3.6-5.2,4.5c-3.1,1.7-6.6,2.5-10.6,2.5c-6.4,0-12.1-2.1-17-6.2
			c-5.9-5-8.9-11.6-8.9-19.8c0-8.4,3-15,9.1-20c4.8-4,10.4-6,16.6-6c3.6,0,7.1,0.7,10.3,2.1c1.8,0.8,3.7,2.2,5.7,4.2l0-4.8l18.2,0
			L369.8,426.4z M352.1,402c0-3.1-1.2-5.7-3.4-7.8c-2.3-2.1-5-3.2-8.3-3.2c-3.6,0-6.6,1.3-8.9,3.9c-1.9,2.1-2.8,4.5-2.8,7.2
			s0.9,5.1,2.8,7.2c2.3,2.6,5.2,3.9,8.9,3.9c3.3,0,6-1.1,8.3-3.2C350.9,407.7,352.1,405.1,352.1,402z"/>
		<path d="M420.6,393.3c-2.5-1.2-5.1-1.7-7.7-1.7c-6,0-9.8,2.4-11.6,7c-0.7,1.7-1,4-1,6.8l0,20.9l-18.2,0l-0.1-48.9l18.2,0l0,8
			c1.9-2.9,4-4.9,6.2-6.2c3-1.7,6.5-2.5,10.6-2.6c1,0,2.1,0,3.5,0.1L420.6,393.3z"/>
		<path d="M486.7,426.1l-18.2,0l0-5.4c-1.7,2.1-3.5,3.6-5.2,4.5c-3.1,1.7-6.6,2.5-10.6,2.5c-6.4,0-12.1-2.1-17-6.2
			c-5.9-5-8.9-11.6-8.9-19.8c0-8.4,3-15,9.1-20c4.8-4,10.4-6,16.6-6c3.6,0,7.1,0.7,10.3,2.2c1.8,0.8,3.7,2.2,5.7,4.2l-0.1-35.1
			l18.2,0L486.7,426.1z M469,401.7c0-3.1-1.2-5.7-3.4-7.9s-5-3.2-8.3-3.2c-3.6,0-6.6,1.3-8.9,3.9c-1.9,2.1-2.8,4.5-2.8,7.2
			c0,2.7,0.9,5.1,2.8,7.2c2.3,2.6,5.2,3.9,8.9,3.9c3.3,0,6-1.1,8.3-3.2C467.9,407.5,469,404.9,469,401.7z"/>
	</g>
	<g>
	</g>
	<g>
	</g>
	<g>
	</g>
	<g>
	</g>
	<g>
	</g>
</g>
</svg>
