<?xml version="1.0" encoding="utf-8"?>
<!-- Generator: Adobe Illustrator 24.1.1, SVG Export Plug-In . SVG Version: 6.00 Build 0)  -->
<svg version="1.1" id="Layer_1" xmlns="http://www.w3.org/2000/svg" xmlns:xlink="http://www.w3.org/1999/xlink" x="0px" y="0px"
	 viewBox="0 0 800 600" style="enable-background:new 0 0 800 600;" xml:space="preserve">
<style type="text/css">
	.st0{fill:url(#SVGID_1_);}
</style>
<g id="Layer_2_1_">
	
		<linearGradient id="SVGID_1_" gradientUnits="userSpaceOnUse" x1="73.1511" y1="378.1002" x2="727.5855" y2="378.1002" gradientTransform="matrix(1 0 0 -1 0 602)">
		<stop  offset="0" style="stop-color:#FFBD41"/>
		<stop  offset="1" style="stop-color:#FF6628"/>
	</linearGradient>
	<path class="st0" d="M704.03,154.45c13.06,0,23.56-10.63,23.56-23.56c0-13.06-10.63-23.56-23.56-23.56
		c-13.06,0-23.56,10.63-23.56,23.56c0,2.69,0.4,5.38,1.35,7.81l-64.34,57.21l-86.01-52.49c0.27-1.48,0.4-2.96,0.4-4.44
		c0-13.46-10.9-24.36-24.36-24.36c-5.38,0-10.36,1.75-14.4,4.71l-77.4-61.92c0.4-1.62,0.67-3.23,0.67-4.85
		c0-10.23-8.35-18.58-18.58-18.58c-10.23,0-18.58,8.35-18.58,18.58c0,5.25,2.15,9.96,5.65,13.33l-38.5,81.84
		c-1.88-0.4-3.9-0.54-6.06-0.54c-6.06,0-11.71,1.75-16.42,4.85l-99.2-46.57c0.13-0.94,0.13-2.02,0.13-3.1
		c0-15.48-12.65-28.13-28.13-28.13s-28.13,12.65-28.13,28.13s12.65,28.13,28.13,28.13c9.29,0,17.63-4.58,22.75-11.58l94.22,44.28
		c-2.15,4.17-3.5,8.88-3.5,14c0,5.79,1.62,11.04,4.44,15.61l-54.11,54.11c-7.4-5.52-16.69-8.88-26.65-8.88
		c-17.23,0-32.04,9.83-39.44,24.09l-75.65-35.53c0-0.54,0.13-1.21,0.13-1.88c0-12.65-10.23-22.88-22.88-22.88
		s-22.88,10.23-22.88,22.88c0,12.65,10.23,22.88,22.88,22.88c6.86,0,13.06-2.96,17.23-7.81l76.72,36.07
		c-0.27,2.15-0.54,4.31-0.54,6.46c0,13.46,6.06,25.57,15.61,33.79l-42.13,57.61c-0.4,0-0.94,0-1.35,0
		c-9.83,0-17.63,7.94-17.63,17.63c0,9.83,7.94,17.63,17.63,17.63c9.83,0,17.63-7.94,17.63-17.63c0-4.04-1.35-7.67-3.63-10.63
		l41.73-57.07c5.11,2.02,10.63,3.1,16.42,3.1c12.79,0,24.36-5.38,32.44-14.13l47.38,34.73c-1.48,3.37-2.15,7.13-2.15,11.17
		c0,16.02,13.06,29.07,29.07,29.07c12.25,0,22.61-7.54,26.92-18.17l106.74-36.21c6.33,11.71,18.58,19.65,32.84,19.65
		c7.94,0,15.21-2.42,21.27-6.73l49,42.67c-0.67,1.88-0.94,3.9-0.94,5.92c0,10.63,8.61,19.11,19.11,19.11s19.11-8.61,19.11-19.11
		c0-10.5-8.61-19.11-19.11-19.11c-3.23,0-6.19,0.81-8.88,2.15l-48.32-42c3.77-5.79,5.92-12.79,5.92-20.19
		c0-18.04-12.79-33.11-29.88-36.48V162.25c3.77-1.21,7.27-3.23,9.96-6.06l90.86,55.32l69.05,100.01c-0.67,1.48-0.94,3.23-0.94,4.98
		c0,7.27,5.92,13.19,13.19,13.19s13.19-5.92,13.19-13.19s-5.92-13.19-13.19-13.19c-0.13,0-0.27,0-0.54,0l-67.84-98.12l61.92-54.92
		C694.34,152.83,699.05,154.45,704.03,154.45z M469.96,315.43c0,1.35,0.13,2.56,0.13,3.9l-100.82,34.19
		c-2.29-13.73-14.27-24.23-28.67-24.23c-6.86,0-13.19,2.42-18.17,6.46l-48.05-35.13c2.56-5.52,3.9-11.71,3.9-18.31
		c0-9.29-2.83-18.04-7.81-25.17l54.38-54.38c4.44,2.69,9.69,4.17,15.34,4.17c10.77,0,20.19-5.65,25.44-14.27l113.07,98.53
		C473.32,297.8,469.96,306.28,469.96,315.43z M500.24,278.82c-3.5,0.67-6.86,1.75-9.83,3.37L370.22,177.6c0-0.13,0-0.27,0-0.54
		c0-9.29-4.31-17.63-10.9-23.15l38.9-82.78c3.1-0.13,6.06-0.94,8.61-2.42l77.67,62.19c-0.94,2.56-1.35,5.25-1.35,8.08
		c0,10.9,7.13,20.19,17.09,23.29L500.24,278.82L500.24,278.82z"/>
	<g>
		<path d="M185.95,510.06c0,10.5-1.21,19.11-3.63,25.71c-3.77,10.1-9.96,17.9-18.71,23.29c-8.35,5.25-18.31,7.81-29.75,7.94
			c-18.71,0-32.98-5.92-43.07-18.04c-7.54-9.15-11.31-20.06-11.44-32.84c0-14.13,4.31-25.98,13.19-35.53
			c9.96-10.9,23.96-16.42,42-16.56c11.98,0,22.21,2.83,30.55,8.75c5.92,4.17,11.04,10.23,15.34,18.44l-25.04,9.96
			c-2.15-4.58-4.71-7.94-7.54-10.1c-4.04-3.23-9.02-4.85-14.54-4.71c-11.58,0-19.52,5.65-24.09,16.96
			c-1.75,4.17-2.56,8.48-2.56,12.92c0,9.15,3.1,16.83,9.29,23.02c4.58,4.58,10.63,6.86,18.17,6.86c6.73,0,12.11-1.88,16.02-5.65
			c2.56-2.42,4.31-6.06,5.11-10.9h-21.81v-19.11L185.95,510.06z"/>
		<path d="M280.84,530.79c0,9.15-3.1,16.96-9.42,23.56c-7.67,7.94-18.31,11.98-32.04,11.98c-13.86,0-24.5-3.9-32.17-11.84
			c-6.33-6.46-9.56-14.54-9.56-24.09c0-8.61,3.1-16.15,9.42-22.75c7.67-8.08,18.58-11.98,32.84-12.11c13.06,0,23.56,3.9,31.36,11.98
			C277.61,513.97,280.84,521.77,280.84,530.79z M255.4,530.79c0-4.31-1.62-7.94-4.71-10.9c-3.1-2.96-7-4.44-11.44-4.44
			c-4.98,0-9.15,1.88-12.25,5.38c-2.56,2.96-3.9,6.19-3.77,9.96c0,3.77,1.35,7.13,3.9,9.96c3.23,3.63,7.27,5.38,12.38,5.38
			c4.44,0,8.35-1.48,11.44-4.44C253.92,538.87,255.4,535.1,255.4,530.79z"/>
		<path d="M372.91,563.5h-24.5v-7.27c-2.29,2.83-4.71,4.85-7,6.06c-4.17,2.29-8.88,3.36-14.27,3.36c-8.61,0-16.29-2.83-22.88-8.35
			c-7.94-6.73-11.98-15.61-11.98-26.65c0-11.31,4.04-20.19,12.25-26.92c6.46-5.38,14-8.08,22.34-8.08c4.85,0,9.56,0.94,13.86,2.96
			c2.42,1.08,4.98,2.96,7.67,5.65l-0.13-47.25h24.5L372.91,563.5z M348.95,530.66c0-4.17-1.62-7.67-4.58-10.63
			c-2.96-2.96-6.73-4.31-11.17-4.31c-4.85,0-8.88,1.75-11.98,5.25c-2.56,2.83-3.77,6.06-3.77,9.69s1.21,6.86,3.77,9.69
			c3.1,3.5,7,5.25,11.98,5.25c4.44,0,8.08-1.48,11.17-4.31C347.47,538.46,348.95,534.83,348.95,530.66z"/>
		<path d="M467.53,563.23h-24.5v-7.27c-2.29,2.83-4.71,4.85-7,6.06c-4.17,2.29-8.88,3.37-14.27,3.37c-8.61,0-16.29-2.83-22.88-8.35
			c-7.94-6.73-11.98-15.61-11.98-26.65c0-11.31,4.04-20.19,12.25-26.92c6.46-5.38,14-8.08,22.34-8.08c4.85,0,9.56,0.94,13.86,2.96
			c2.42,1.08,4.98,2.96,7.67,5.65l-0.13-47.25h24.5L467.53,563.23z M443.58,530.39c0-4.17-1.62-7.67-4.58-10.63
			c-3.1-2.96-6.73-4.31-11.17-4.31c-4.85,0-8.88,1.75-11.98,5.25c-2.56,2.83-3.77,6.06-3.77,9.69s1.21,6.86,3.77,9.69
			c3.1,3.5,7,5.25,11.98,5.25c4.44,0,8.08-1.48,11.17-4.31S443.71,534.7,443.58,530.39z"/>
		<path d="M562.16,563.1h-24.5v-7.27c-2.29,2.83-4.71,4.85-7,6.06c-4.17,2.29-8.88,3.37-14.27,3.37c-8.61,0-16.29-2.83-22.88-8.35
			c-7.94-6.73-11.98-15.61-11.98-26.65c0-11.31,4.04-20.19,12.25-26.92c6.46-5.38,14-8.08,22.34-8.08c4.85,0,9.56,0.94,13.86,2.83
			c2.42,1.08,4.98,2.96,7.67,5.65v-6.46h24.5V563.1z M538.34,530.25c0-4.17-1.62-7.67-4.58-10.5c-3.1-2.83-6.73-4.31-11.17-4.31
			c-4.85,0-8.88,1.75-11.98,5.25c-2.56,2.83-3.77,6.06-3.77,9.69s1.21,6.86,3.77,9.69c3.1,3.5,7,5.25,11.98,5.25
			c4.44,0,8.08-1.48,11.17-4.31C536.72,537.93,538.34,534.43,538.34,530.25z"/>
		<path d="M630.54,518.54c-3.37-1.62-6.86-2.29-10.36-2.29c-8.08,0-13.19,3.23-15.61,9.42c-0.94,2.29-1.35,5.38-1.35,9.15v28.13
			h-24.5l-0.13-65.82h24.5v10.77c2.56-3.9,5.38-6.6,8.35-8.35c4.04-2.29,8.75-3.37,14.27-3.5c1.35,0,2.83,0,4.71,0.13L630.54,518.54
			z"/>
		<path d="M719.51,562.69h-24.5v-7.27c-2.29,2.83-4.71,4.85-7,6.06c-4.17,2.29-8.88,3.36-14.27,3.36c-8.61,0-16.29-2.83-22.88-8.35
			c-7.94-6.73-11.98-15.61-11.98-26.65c0-11.31,4.04-20.19,12.25-26.92c6.46-5.38,14-8.08,22.34-8.08c4.85,0,9.56,0.94,13.86,2.96
			c2.42,1.08,4.98,2.96,7.67,5.65l-0.13-47.25h24.5L719.51,562.69z M695.68,529.85c0-4.17-1.62-7.67-4.58-10.63
			c-2.96-2.96-6.73-4.31-11.17-4.31c-4.85,0-8.88,1.75-11.98,5.25c-2.56,2.83-3.77,6.06-3.77,9.69s1.21,6.86,3.77,9.69
			c3.1,3.5,7,5.25,11.98,5.25c4.44,0,8.08-1.48,11.17-4.31S695.68,534.16,695.68,529.85z"/>
	</g>
</g>
</svg>
